<svg xmlns="http://www.w3.org/2000/svg" xmlns:xlink="http://www.w3.org/1999/xlink">
<defs>
<clipPath id="minus-square-a"><path d="M0 0h20v20H0z"/></clipPath>

<clipPath id="newspaper-a"><path d="M0 0h128v128H0z"/></clipPath>

<clipPath id="plus-square-a"><path d="M0 0h20v20H0z"/></clipPath>
</defs>

<symbol id="archive" viewBox="0 0 128 128"><path d="M0 16a8 8 0 0 1 8-8h112a8 8 0 0 1 8 8v16a8.001 8.001 0 0 1-8 8v60a20 20 0 0 1-20 20H28a19.999 19.999 0 0 1-20-20V40a8 8 0 0 1-8-8V16Zm16 24v60a11.998 11.998 0 0 0 12 12h72c3.183 0 6.235-1.264 8.485-3.515A11.996 11.996 0 0 0 112 100V40H16Zm104-24H8v16h112V16ZM40 60a4 4 0 0 1 4-4h40a4 4 0 1 1 0 8H44a4 4 0 0 1-4-4Z" fill="#000"/></symbol>

<symbol id="calendar-event" viewBox="0 0 128 128"><path d="M28 0a4 4 0 0 1 4 4v4h64V4a4 4 0 1 1 8 0v4h8a16.002 16.002 0 0 1 16 16v88c0 4.243-1.686 8.313-4.686 11.314A16.004 16.004 0 0 1 112 128H16a16.002 16.002 0 0 1-16-16V24A16 16 0 0 1 16 8h8V4a4 4 0 0 1 4-4zM16 16a8 8 0 0 0-8 8v88a8 8 0 0 0 8 8h96a8 8 0 0 0 8-8V24a8.001 8.001 0 0 0-8-8H16z"/><path d="M20 32a4 4 0 0 1 4-4h80a3.998 3.998 0 0 1 4 4v8a3.997 3.997 0 0 1-4 4H24a4 4 0 0 1-4-4v-8zm68 28a4 4 0 0 1 4-4h8a3.998 3.998 0 0 1 4 4v8a3.997 3.997 0 0 1-4 4h-8a4 4 0 0 1-4-4v-8zm-24 0a4 4 0 0 1 4-4h8a4 4 0 0 1 4 4v8a4 4 0 0 1-4 4h-8a4 4 0 0 1-4-4v-8zM24 84a4 4 0 0 1 4-4h8a4 4 0 0 1 4 4v8a4 4 0 0 1-4 4h-8a4 4 0 0 1-4-4v-8zm24 0a4 4 0 0 1 4-4h8a4 4 0 0 1 4 4v8a4 4 0 0 1-4 4h-8a4 4 0 0 1-4-4v-8z"/></symbol>

<symbol id="easel" viewBox="0 0 128 128"><path d="M64 0a4 4 0 0 1 3.784 2.696L72.368 16H112a8 8 0 0 1 8 8v56a8.001 8.001 0 0 1-8 8H97.2l10.584 30.696a4.003 4.003 0 1 1-7.568 2.608L88.736 88H68v24a3.998 3.998 0 0 1-6.828 2.828A3.998 3.998 0 0 1 60 112V88H39.264l-11.48 33.304a4.001 4.001 0 1 1-7.568-2.608L30.8 88H16a8 8 0 0 1-8-8V24a8 8 0 0 1 8-8h39.632l4.584-13.304A4 4 0 0 1 64 0ZM16 24v56h96V24H16Z" fill="#000"/></symbol>

<symbol id="globe" viewBox="0 0 128 128"><path d="M0 64a64 64 0 1 1 128 0A64 64 0 0 1 0 64zM60 8.616c-5.36 1.632-10.68 6.56-15.096 14.84A63.766 63.766 0 0 0 41.16 32H60V8.616zM32.72 32a74.14 74.14 0 0 1 5.12-12.312 53.599 53.599 0 0 1 4.776-7.464A56.2 56.2 0 0 0 18.04 32h14.68zm-4.656 28c.24-7.016 1.104-13.744 2.496-20H13.392a55.663 55.663 0 0 0-5.248 20h19.92zm10.712-20a100 100 0 0 0-2.704 20H60V40H38.776zM68 40v20h23.92a99.958 99.958 0 0 0-2.696-20H68zM36.08 68a100.003 100.003 0 0 0 2.696 20H60V68H36.08zM68 68v20h21.224c1.496-6.12 2.448-12.864 2.704-20H68zM41.16 96c1.104 3.088 2.36 5.952 3.744 8.544 4.416 8.28 9.744 13.2 15.096 14.84V96H41.16zm1.456 19.776a53.554 53.554 0 0 1-4.776-7.464A74.16 74.16 0 0 1 32.72 96H18.04a56.193 56.193 0 0 0 24.576 19.776zM30.56 88a109.218 109.218 0 0 1-2.496-20H8.144a55.41 55.41 0 0 0 5.248 20H30.56zm54.824 27.776A56.194 56.194 0 0 0 109.96 96H95.28a74.178 74.178 0 0 1-5.12 12.312 53.517 53.517 0 0 1-4.776 7.464zM68 96v23.384c5.36-1.632 10.68-6.56 15.096-14.84 1.384-2.592 2.64-5.456 3.744-8.544H68zm29.44-8h17.168a55.41 55.41 0 0 0 5.248-20h-19.92a109.2 109.2 0 0 1-2.496 20zm22.416-28a55.668 55.668 0 0 0-5.248-20H97.44c1.392 6.256 2.256 12.984 2.496 20h19.92zM90.16 19.688c1.976 3.712 3.696 7.84 5.12 12.312h14.68a56.194 56.194 0 0 0-24.576-19.776c1.744 2.272 3.344 4.784 4.776 7.464zM86.84 32a63.735 63.735 0 0 0-3.744-8.544C78.68 15.176 73.36 10.256 68 8.616V32h18.84z"/></symbol>

<symbol id="library-catalogue" viewBox="0 0 128 128"><path clipRule="evenodd" d="M4.103 121.751c-2.866-.643-4.638-3.359-3.958-6.068L28.24 3.877c.68-2.708 3.556-4.383 6.423-3.74l23.873 5.356a5.429 5.429 0 0 1 2.253 1.088v-.552c0-5.04 5.02-5.04 5.02-5.04h24.099s2.48 0 3.954 1.75C95.34.99 97.824.99 97.824.99h25.147S128 .99 128 6.03v116.919c0 5.544-5.029 5.04-5.029 5.04H97.824s-2.384 0-3.87-1.644c-1.46 1.904-4.046 1.644-4.046 1.644H65.81s-5.02 0-5.02-5.04V18.343L34.398 123.368c-.68 2.708-3.556 4.382-6.422 3.739l-23.874-5.356zm22.731-3.188L9.19 114.604 35.805 8.682l17.645 3.959-26.616 105.922zM68.822 9.053h21.086v110.872H68.822V9.053zm30.008 0h21.123v110.872H98.83V9.053z" fillRule="evenodd"/></symbol>

<symbol id="minus-square" viewBox="0 0 20 20"><g clipPath="url(#minus-square-a)"><path d="M17.5 1.25a1.25 1.25 0 0 1 1.25 1.25v15a1.25 1.25 0 0 1-1.25 1.25h-15a1.25 1.25 0 0 1-1.25-1.25v-15A1.25 1.25 0 0 1 2.5 1.25h15zM2.5 0A2.5 2.5 0 0 0 0 2.5v15A2.5 2.5 0 0 0 2.5 20h15a2.5 2.5 0 0 0 2.5-2.5v-15A2.5 2.5 0 0 0 17.5 0h-15z"/><path d="M5 10a.625.625 0 0 1 .625-.625h8.75a.625.625 0 1 1 0 1.25h-8.75A.625.625 0 0 1 5 10z"/></g></symbol>

<symbol id="museum" viewBox="0 0 128 128"><path clipRule="evenodd" d="M67.505 2.811a6 6 0 0 0-6.026 0L6.907 34.5C1.605 37.577 3.789 45.687 9.92 45.687h2.572v59.5h-1.77a5.5 5.5 0 0 0-5.068 3.364l-4.216 10c-1.529 3.625 1.133 7.636 5.068 7.636h115.256c3.718 0 6.365-3.613 5.244-7.158l-3.162-10a5.5 5.5 0 0 0-5.244-3.842h-3.108v-59.5h3.573c6.13 0 8.314-8.11 3.012-11.188L67.505 2.81zM19.492 45.687h89v59h-6.5V67.928c0-.709-.066-1.417-.196-2.113-2.333-12.489-20.533-12.692-22.65.157a11.496 11.496 0 0 0-.154 1.87v36.845h-3V67.928c0-.709-.066-1.417-.196-2.113-2.333-12.489-20.533-12.692-22.65.157a11.496 11.496 0 0 0-.154 1.87v36.845h-3V67.928c0-.709-.066-1.417-.196-2.113-2.333-12.489-20.533-12.692-22.65.157a11.496 11.496 0 0 0-.154 1.87v36.845h-7.5v-59zm40.5 59h9V67.928c0-.276-.026-.554-.077-.828-.952-5.099-8.071-4.793-8.863.011-.04.242-.06.486-.06.73v36.846zm35-36.759v36.759h-9V67.842c0-.245.02-.49.06-.731.792-4.804 7.91-5.11 8.863-.01.051.273.077.55.077.827zm-61 36.759h9V67.928c0-.276-.026-.554-.077-.828-.952-5.099-8.071-4.793-8.863.011-.04.242-.06.486-.06.73v36.846zm-16.645-67 47.145-27.374 47.145 27.374h-94.29zm-5.63 74.5-2.95 7h110.948l-2.214-7H11.717z" fillRule="evenodd"/></symbol>

<symbol id="newspaper" viewBox="0 0 128 128"><g clipPath="url(#newspaper-a)"><path d="M0 20A12 12 0 0 1 12 8h88a11.998 11.998 0 0 1 12 12v84.224c0 2.4-.4 5.232-1.904 7.776H116a3.995 3.995 0 0 0 2.828-1.172A3.995 3.995 0 0 0 120 108V36a3.997 3.997 0 0 1 4-4 3.998 3.998 0 0 1 4 4v72c0 3.183-1.264 6.235-3.515 8.485A11.996 11.996 0 0 1 116 120H11.976a11.983 11.983 0 0 1-8.477-3.516A11.98 11.98 0 0 1 0 108V20zm96 92c2.96 0 5.232-1.688 6.824-3.528.736-.848 1.176-2.232 1.176-4.248V20a3.997 3.997 0 0 0-4-4H12a4 4 0 0 0-4 4v88c0 2.224 1.784 4 3.976 4H96z"/><path d="M16 24h80v16H16V24zm0 24h32v24H16V48zm0 32h32v8H16v-8zm0 16h32v8H16v-8zm40-48h16v8H56v-8zm24 0h16v8H80v-8zM56 64h16v8H56v-8zm24 0h16v8H80v-8zM56 80h16v8H56v-8zm24 0h16v8H80v-8zM56 96h16v8H56v-8zm24 0h16v8H80v-8z"/></g></symbol>

<symbol id="plus-square" viewBox="0 0 20 20"><g clipPath="url(#plus-square-a)"><path d="M17.5 1.25a1.25 1.25 0 0 1 1.25 1.25v15a1.25 1.25 0 0 1-1.25 1.25h-15a1.25 1.25 0 0 1-1.25-1.25v-15A1.25 1.25 0 0 1 2.5 1.25h15zM2.5 0A2.5 2.5 0 0 0 0 2.5v15A2.5 2.5 0 0 0 2.5 20h15a2.5 2.5 0 0 0 2.5-2.5v-15A2.5 2.5 0 0 0 17.5 0h-15z"/><path d="M10 5a.625.625 0 0 1 .625.625v3.75h3.75a.625.625 0 1 1 0 1.25h-3.75v3.75a.624.624 0 1 1-1.25 0v-3.75h-3.75a.625.625 0 1 1 0-1.25h3.75v-3.75A.625.625 0 0 1 10 5z"/></g></symbol>

<symbol id="sticker-corner" viewBox="0 0 40 40"></symbol>

<symbol id="audiobook-cd" viewBox="0 0 128 128"><path d="M86.75 24c-5.514 0-10 4.486-10 10s4.486 10 10 10 10-4.486 10-10-4.486-10-10-10zm0 15c-2.757 0-5-2.243-5-5s2.243-5 5-5 5 2.243 5 5-2.243 5-5 5z"/><path d="M86.75 8c-14.337 0-26 11.664-26 26s11.663 26 26 26 26-11.664 26-26-11.663-26-26-26zm0 46c-11.028 0-20-8.972-20-20s8.972-20 20-20 20 8.972 20 20-8.972 20-20 20z"/><path d="M86 63.043V113.5H29.278c-4.564-.043-8.278-3.779-8.278-8.328 0-4.658 3.791-8.63 8.278-8.672H78V61.714a28.897 28.897 0 01-6-2.687V90.5H29v.014c-2.979.075-5.732 1.09-8 2.761V40.5c0-3.86 2.953-7 6.584-7H57.7c.035-2.059.285-4.065.729-6H27.584C20.646 27.5 15 33.332 15 40.5v65h.017c.175 7.602 6.355 13.796 13.983 13.986v.014h63V62.578c-1.732.32-3.489.482-5.25.484-.252 0-.5-.012-.75-.019z"/></symbol>

<symbol id="audiobook-digital" viewBox="0 0 128 128"><path d="M86.75 8c-14.337 0-26 11.664-26 26s11.663 26 26 26 26-11.664 26-26-11.663-26-26-26zm0 46c-11.028 0-20-8.972-20-20s8.972-20 20-20 20 8.972 20 20-8.972 20-20 20z"/><path d="M80 44l18.343-11L80 22v22zm6 19.043V113.5H29.278c-4.564-.043-8.278-3.779-8.278-8.328 0-4.658 3.791-8.63 8.278-8.672H78V61.714a28.897 28.897 0 01-6-2.687V90.5H29v.014c-2.979.075-5.732 1.09-8 2.761V40.5c0-3.86 2.953-7 6.584-7H57.7c.035-2.059.285-4.065.729-6H27.584C20.646 27.5 15 33.332 15 40.5v65h.017c.175 7.602 6.355 13.796 13.983 13.986v.014h63V62.578c-1.732.32-3.489.482-5.25.484-.252 0-.5-.012-.75-.019z"/></symbol>

<symbol id="book-and-cd" viewBox="0 0 128 128"><path d="M90 45.669V32h-6v72H27.278c-4.564-.043-8.278-3.779-8.278-8.328 0-4.658 3.791-8.63 8.278-8.672H76V18H25.584C18.646 18 13 23.832 13 31v65h.017c.175 7.602 6.355 13.796 13.983 13.986V110h63V98.021c13.713-.839 24.613-12.256 24.613-26.176 0-13.92-10.9-25.337-24.613-26.176zM19 33v-2c0-3.86 2.953-7 6.584-7H70v57H27v.014c-2.979.075-5.732 1.09-8 2.761V33zm71 32.556c2.804.722 4.884 3.264 4.884 6.289s-2.08 5.567-4.884 6.289V65.556zm0 26.437v-8.774c5.577-.791 9.884-5.582 9.884-11.374 0-5.792-4.307-10.583-9.884-11.374v-8.774c10.4.829 18.613 9.539 18.613 20.148S100.4 91.164 90 91.993z"/></symbol>

<symbol id="braille" viewBox="0 0 128 128"><path d="M80.434 75.789c6.27 0 11.354-5.083 11.354-11.354 0-6.27-5.083-11.354-11.354-11.354-6.27 0-11.354 5.083-11.354 11.354 0 6.27 5.083 11.354 11.354 11.354zM80.434 42.708c6.27 0 11.354-5.083 11.354-11.354 0-6.27-5.083-11.354-11.354-11.354-6.27 0-11.354 5.083-11.354 11.354 0 6.27 5.083 11.354 11.354 11.354zM47.354 42.708c6.27 0 11.354-5.083 11.354-11.354 0-6.27-5.083-11.354-11.354-11.354C41.084 20 36 25.083 36 31.354c0 6.27 5.083 11.354 11.354 11.354zM47.354 75.789c6.27 0 11.354-5.083 11.354-11.354 0-6.27-5.083-11.354-11.354-11.354-6.27 0-11.354 5.083-11.354 11.354 0 6.27 5.083 11.354 11.354 11.354zM47.354 108.869c6.27 0 11.354-5.083 11.354-11.354 0-6.27-5.083-11.354-11.354-11.354-6.27 0-11.354 5.083-11.354 11.354 0 6.271 5.083 11.354 11.354 11.354zM80.434 108.869c6.27 0 11.354-5.083 11.354-11.354 0-6.27-5.083-11.354-11.354-11.354-6.27 0-11.354 5.083-11.354 11.354 0 6.271 5.083 11.354 11.354 11.354z"/></symbol>

<symbol id="cassette" viewBox="0 0 128 128"><path d="M107.313 27h-84.38C18.34 27 14 31.406 14 36.068v57.255c0 4.416 3.841 7.746 8.934 7.746h84.377c4.597 0 7.689-3.11 7.689-7.746V36.067c.002-5.253-3.232-9.067-7.687-9.067zM46.567 90.966l2.166-8.416H81.14l2.266 8.416h-36.84zm58.335 0H90.374L86.3 75.818H43.516l-3.903 15.148H24.1V37.099h80.8l.002 53.867z"/><path d="M44.301 67.441v-.039h42.083v-.089c5.05-.837 10.11-5.746 10.11-11.696 0-5.947-5.061-10.859-10.11-11.694v-.089H44.301v-.039c-6.732.133-11.59 5.37-11.59 11.824 0 6.453 4.855 11.692 11.59 11.822zM82.717 49.7a5.92 5.92 0 11.01 11.838 5.92 5.92 0 01-.015-11.838h.005zm-24.949-.815h11.783v13.467H57.768V48.884zm-11.992.815a5.92 5.92 0 015.92 5.918 5.92 5.92 0 01-5.918 5.92h-.004a5.919 5.919 0 01.002-11.838z"/></symbol>

<symbol id="cd" viewBox="0 0 128 128"><path d="M64.462 48.442c-8.834 0-16.021 7.187-16.021 16.02 0 8.834 7.187 16.021 16.02 16.021 8.835 0 16.022-7.187 16.022-16.021 0-8.833-7.187-16.02-16.021-16.02zm0 27.041c-6.077 0-11.021-4.943-11.021-11.021 0-6.076 4.943-11.02 11.02-11.02 6.079 0 11.022 4.944 11.022 11.02 0 6.077-4.944 11.021-11.021 11.021z"/><path d="M64.462 20C39.945 20 20 39.945 20 64.462c0 24.517 19.945 44.462 44.462 44.462 24.517 0 44.462-19.945 44.462-44.462C108.924 39.945 88.979 20 64.462 20zm0 82.924C43.254 102.924 26 85.67 26 64.462 26 43.254 43.254 26 64.462 26c21.208 0 38.462 17.254 38.462 38.462 0 21.208-17.254 38.462-38.462 38.462z"/></symbol>

<symbol id="computer-game" viewBox="0 0 128 128"><path d="M94.832 37.412C86.439 25.883 72.926 19 58.684 19 34.045 19 14 39.045 14 63.683c0 24.639 20.045 44.684 44.684 44.684 14.01 0 26.94-6.383 35.476-17.513l1.768-2.305-30.283-24.803 30.899-23.982-1.712-2.352zM56.021 63.62l31.526 25.822c-7.342 8.249-17.708 12.925-28.864 12.925C37.354 102.367 20 85.013 20 63.683S37.354 25 58.684 25c11.358 0 22.183 5.058 29.498 13.659L56.021 63.62z"/><path d="M61.5 45.683a6.333 6.333 0 100-12.666 6.333 6.333 0 000 12.666zM88.5 70.683a6.333 6.333 0 100-12.666 6.333 6.333 0 000 12.666zM108.5 70.683a6.333 6.333 0 100-12.666 6.333 6.333 0 000 12.666z"/></symbol>

<symbol id="document" viewBox="0 0 128 128"><path d="M36 81h57v4H36v-4zm0-11h57v4H36v-4zm0-12h57v4H36v-4zm0-22h37v4H36v-4z"/><path d="M81 18H30c-2.757 0-5 2.243-5 5v80.923c0 2.8 2.243 5.077 5 5.077h68c2.757 0 5-2.277 5-5.077V40L81 18zm16 85H31V24h50v16h16v63z"/></symbol>

<symbol id="dvd" viewBox="0 0 128 128"><path d="M71 80.483c8.834 0 16.021-7.187 16.021-16.021 0-8.833-7.187-16.02-16.021-16.02s-16.021 7.187-16.021 16.02c0 8.834 7.187 16.021 16.021 16.021zm0-27.041c6.077 0 11.021 4.944 11.021 11.02 0 6.077-4.943 11.021-11.021 11.021-6.078 0-11.021-4.943-11.021-11.021 0-6.076 4.944-11.02 11.021-11.02z"/><path d="M71 20c-24.517 0-44.462 19.945-44.462 44.462 0 1.851.127 3.67.348 5.462h6.047a38.575 38.575 0 01-.395-5.462C32.538 43.254 49.792 26 71 26c21.208 0 38.462 17.254 38.462 38.462 0 21.208-17.254 38.462-38.462 38.462v6c24.517 0 44.462-19.945 44.462-44.462C115.462 39.945 95.517 20 71 20zM20.623 81.924H13v20h7.623c5.507 0 10.09-4.415 10.09-10s-4.558-10-10.09-10zm-1.001 16H18v-11h1.675c3.319 0 5.664 1.943 5.664 5.5 0 3.872-2.635 5.5-5.717 5.5z"/><path d="M40 93.988l-4.793-12.064h-5.611l8.35 20h4.005l8.483-20h-5.612L40 93.988zm19.043-12.064H52v20h7.043c5.506 0 10.089-4.415 10.089-10s-4.558-10-10.09-10zm-1.001 16H57v-11h1.094c3.32 0 5.664 1.943 5.664 5.5 0 3.872-2.635 5.5-5.716 5.5z"/></symbol>

<symbol id="ebook" viewBox="0 0 128 128"><path d="M97.846 18H30.154C27.36 18 25 20.325 25 23.076V105c0 2.71 2.36 5 5.154 5h67.691c2.794 0 5.154-2.29 5.154-5V23.076C103 20.325 100.64 18 97.846 18zM97 104H31V24h66v80z"/><path d="M91 29H37v61h54V29zm-4 57H41V33h46v53zM63.77 100.308a3.5 3.5 0 100-7 3.5 3.5 0 000 7z"/><path d="M47 41h33v4H47v-4zm0 9h33v4H47v-4zm0 10h26v4H47v-4z"/></symbol>

<symbol id="fallback" viewBox="0 0 128 128"><path d="M102 21H26c-2.757 0-5 2.243-5 5v76c0 2.757 2.243 5 5 5h76c2.757 0 5-2.243 5-5V26c0-2.757-2.243-5-5-5zM60.259 63.657L27 96.769V30.25l33.259 33.407zM32.23 27h64.85L64.511 59.425 32.23 27zm36.513 36.676L101 31.563v64.514L68.743 63.676zM97.436 101H31.253l33.238-33.091L97.436 101z"/></symbol>

<symbol id="hardback" viewBox="0 0 128 128"><path d="M97 32v72H40.278c-4.564-.043-8.278-3.779-8.278-8.328 0-4.658 3.791-8.63 8.278-8.672H89V18H38.584C31.646 18 26 23.832 26 31v65h.017c.175 7.602 6.354 13.796 13.983 13.986V110h63V32h-6zm-65 1v-2c0-3.86 2.953-7 6.584-7H83v57H40v.014c-2.979.075-5.732 1.09-8 2.761V33z"/></symbol>

<symbol id="image" viewBox="0 0 128 128"><path d="M112.692 26H15.308C12.282 26 10 27.984 10 30.615v66.308c0 2.705 2.48 5.077 5.308 5.077h97.385c2.827 0 5.308-2.372 5.308-5.077V30.615C118 27.984 115.718 26 112.692 26zM112 96H16V32h96v64z"/><path d="M89.311 61.538c5.862 0 10.615-4.752 10.615-10.615s-4.752-10.615-10.615-10.615-10.615 4.752-10.615 10.615c0 5.862 4.752 10.615 10.615 10.615zM70.25 68.654L58.75 78l-20.5-33.692L19 76v17h74.25l-23-24.346z"/></symbol>

<symbol id="internet" viewBox="0 0 128 128"><path d="M64 20c-26.468 0-48 19.945-48 44.462 0 24.517 21.532 44.462 48 44.462s48-19.945 48-44.462C112 39.945 90.468 20 64 20zm31.369 18.924H82.261c-3.167-5.053-6.825-9.156-9.93-12.161 9.079 1.68 17.101 6.052 23.038 12.161zM66 27.789c2.715 2.353 6.63 6.155 10.184 11.135H66V27.789zm-5 1.123v10.012h-8.924c3.037-4.255 6.334-7.645 8.924-10.012zm-5.02-2.2c-3.115 3.01-6.797 7.131-9.981 12.212H32.631c6.005-6.178 14.143-10.575 23.349-12.212zM31.613 88.924H46.33c2.803 4.519 6.342 9.007 10.644 13.451-10.146-1.572-19.07-6.477-25.361-13.451zM61 99.336c-3.391-3.459-6.286-6.932-8.694-10.412H61v10.412zm10.337 2.988c4.279-4.428 7.801-8.898 10.593-13.4h14.457c-6.227 6.902-15.033 11.776-25.05 13.4zM66 100.595V88.924h9.954c-2.7 3.903-6.019 7.796-9.954 11.671zm18.727-16.671c1.972-3.98 3.357-7.983 4.165-12h-5.121c-.917 4.001-2.483 8.004-4.702 12H66v-12h-5v12H49.191c-2.219-3.996-3.785-7.999-4.702-12h-5.121c.808 4.017 2.193 8.02 4.165 12H27.796c-3.597-5.589-5.693-12.076-5.783-19H28v-5h-5.697c.752-5.831 2.932-11.263 6.213-16h14.701a48.42 48.42 0 00-2.451 6h5.338a46.102 46.102 0 012.806-6H61v6h5v-6h13.351a46.102 46.102 0 012.806 6h5.338a48.42 48.42 0 00-2.451-6h14.441c3.281 4.737 5.461 10.169 6.213 16H100v5h5.987c-.09 6.924-2.187 13.411-5.783 19H84.727z"/><path d="M45.233 60.422l-.265 1.502h-.054l-1.701-8h-3.216l-1.754 8h-.054l-1.807-8H32.74l3.802 14h3.136l1.063-4.434.771-4.566h.053l.797 4.168 1.224 4.832h3.083l3.722-14h-3.563l-1.595 6.498zm21.106 0l-.266 1.502h-.053l-1.702-8h-3.215l-1.754 8h-.054l-1.808-8h-3.641l3.801 14h3.136l1.064-4.434.77-4.566h.054l.797 4.168 1.223 4.832h3.083l3.722-14h-3.562l-1.595 6.498zm21.105 0l-.265 1.502h-.054l-1.701-8h-3.216l-1.754 8H80.4l-1.807-8h-3.642l3.802 14h3.136l1.063-4.434.771-4.566h.053l.797 4.168 1.224 4.832h3.083l3.722-14h-3.563l-1.595 6.498z"/></symbol>

<symbol id="large-print" viewBox="0 0 128 128"><path d="M97 32v72H40.278c-4.564-.043-8.278-3.779-8.278-8.328 0-4.658 3.791-8.63 8.278-8.672H89V18H38.584C31.646 18 26 23.832 26 31v65h.017c.175 7.602 6.354 13.796 13.983 13.986V110h63V32h-6zm-65 1v-2c0-3.86 2.953-7 6.584-7H83v57H40v.014c-2.979.075-5.732 1.09-8 2.761V33z"/><path d="M45.223 63h6.143l1.14 5h6.468l-7.363-31h-6.387l-7.119 31h6.021l1.097-5zm2.278-13.27l.65-4.73h.082l.691 4.73L50.471 58H46.2l1.301-8.27zM66.688 64h4.629l.858 4h4.875l-5.549-23h-4.813l-5.364 23h4.537l.827-4zm1.716-9.833L68.896 51h.061l.521 3.167L70.643 60h-3.219l.98-5.833z"/></symbol>

<symbol id="map" viewBox="0 0 128 128"><path d="M38.679 56c0 2.2.495 5 1.378 6h-.003l.024.237c.019.037.036.168.055.205l12.865 26.503 12.958-26.257c.06-.116.117-.372.174-.49l.028-.198h-.002c.86-1 1.344-3.754 1.344-5.928 0-7.957-6.452-14.333-14.411-14.333S38.679 48.041 38.679 56zm22.917.38a8.445 8.445 0 11-16.89-.002 8.445 8.445 0 0116.89.001z"/><path d="M101.229 28.264l-22.25-10a2.99 2.99 0 00-2.358-.043l-23.507 9.546-24.005-9.554A3 3 0 0025 21v75c0 1.201.717 2.287 1.821 2.76l25.75 10.999a3 3 0 002.456-.044l22.084-10.393L98.7 109.704a2.996 2.996 0 003.926-1.253c.245-.444.374-.943.374-1.451V31a3 3 0 00-1.771-2.736zM76 93.234c-.05.02-.104.027-.152.051L55 103.096V91.577a4.569 4.569 0 01-1.911.423A4.599 4.599 0 0151 91.492v11.07l-20-8.543V25.423l20 7.96v5.972c.67-.118 1.367-.188 2.089-.188.658 0 1.296.057 1.911.156v-5.846l21-8.528v68.284zm21 8.995l-17-8.175V25.3l17 7.641v69.288z"/></symbol>

<symbol id="movie-blueray" viewBox="0 0 128 128"><path d="M44 44c0-5.514-4.486-10-10-10s-10 4.486-10 10 4.486 10 10 10 10-4.486 10-10zm-10 5c-2.757 0-5-2.243-5-5s2.243-5 5-5 5 2.243 5 5-2.243 5-5 5zm60.25 6.499V39.151c0-2.738-1.93-4.651-4.692-4.651H61.531a28.82 28.82 0 011.382 6H88.25l-.003 22h.003v3.359l5.854-3.359h.146v-.084l19-10.903v42.961l-19-10.953V83.5h-.036l-5.964-3.438V83.5h-.006l-.003 21H24.25v-22h-6v22.651c0 2.749 2.579 5.349 5.308 5.349h66c2.631 0 4.692-2.35 4.692-5.349V90.445l25 14.414V41.153l-25 14.346z"/><path d="M17.01 54.5A19.852 19.852 0 0114 44c0-11.028 8.972-20 20-20s20 8.972 20 20c0 3.854-1.114 7.443-3.01 10.5h6.787A25.833 25.833 0 0060 44c0-14.336-11.663-26-26-26S8 29.664 8 44c0 3.736.798 7.287 2.223 10.5h6.787zm2.912 17.734c0-2.074-.999-4.282-3.224-4.682 1.175-.75 1.649-2.439 1.649-3.789 0-3.749-2.149-5.264-5.648-5.264H8.25v19h5.648c3.425.001 6.024-1.565 6.024-5.265zM12.25 61.5h.024c1.549 0 2.649.551 2.649 2.475 0 1.949-.875 2.525-2.675 2.525h.002v-5zm.324 13h-.324v-5h.149c1.85 0 3.849-.023 3.849 2.426 0 2.449-1.699 2.574-3.674 2.574zm9.676-18h3v21h-3v-21zm5 9v7.118c0 3.574 1.852 5.448 5.5 5.448 3.648 0 5.5-1.874 5.5-5.448V65.5h-3v6.543c0 1.4-.225 3.074-2 3.074s-2-1.674-2-3.074V65.5h-4zm14 3h6v3h-6v-3zm8-3v12h4v-5.356c0-1.899.1-4.049 2.523-4.049.525 0 .95.149 1.375.449l.387-3.249c-.449-.175-.969-.385-1.469-.385-1.299 0-2.367.59-3.067 1.59h.251v-1h-4zm21 12v-12h-3v1.045c-1-1-2.389-1.55-3.662-1.55-3.525 0-5.719 3.225-5.719 6.474 0 3.324 1.99 6.576 5.589 6.576 1.274 0 2.515-.545 3.265-1.545h.527v1h3zm-6.052-2.532c-1.8 0-2.899-1.8-2.899-3.449 0-1.649 1.1-3.424 2.899-3.424s2.925 1.774 2.925 3.424-1.125 3.449-2.925 3.449zM76.074 84.5l8.923-19h-3.899l-3.15 6.974-2.924-6.974H71.05l5.223 10.486-4.048 8.514h3.849z"/></symbol>

<symbol id="movie" viewBox="0 0 128 128"><path d="M115 32.653L90 46.999V30.651C90 27.913 88.07 26 85.308 26h-66C16.282 26 14 28 14 30.651v66C14 99.4 16.579 102 19.308 102h66C87.939 102 90 99.65 90 96.651V81.945l25 14.414V32.653zm-6 53.322L90 75.021V75h-.036L84 71.562V75h-.006l-.003 21H20V32h64l-.003 22H84v3.359L89.854 54H90v-.084l19-10.903v42.962z"/></symbol>

<symbol id="music-sheet" viewBox="0 0 128 128"><path d="M96 30v-7.667L48.325 36H10v2h36v20H10v2h36v20H10v2h36v9.095c-2.759-.459-5.872-.403-9.079.295-7.275 1.584-12.787 5.937-14.124 10.61H10v2h12.492c-.02.564.029 1.128.142 1.68 1.284 5.897 9.762 9.057 18.936 7.06 6.292-1.37 11.266-4.811 13.356-8.739H118v-2H84.387c7.377-2.49 12.276-7.877 11.539-13H96v-7h22v-2H96V60h22v-2H96V38h22v-2H96v-6zM62.634 95.729c.608 2.794 2.845 4.963 5.993 6.271H55.725c.178-.652.27-1.324.275-2v-.005c0-.166.011-.332 0-.498V82h18.809c-8.018 2.452-13.357 8.3-12.175 13.729zM86 80H56V60h30v20zM56 58v-9.866l30-8.6V58H56zM10 14h108v2H10v-2z"/><path clipRule="evenodd" d="M118 38v-2H96V22.333L48.325 36H10v2h36v20H10v2h36v20H10v2h36v9.095a22.558 22.558 0 00-4-.294 25.538 25.538 0 00-5.079.589c-6.223 1.355-11.156 4.736-13.29 8.61a9.664 9.664 0 00-.834 2H10v2h12.492a7.166 7.166 0 00.142 1.68c.023.108.05.214.077.32 1.517 5.691 9.852 8.701 18.859 6.74 5.197-1.131 9.494-3.676 12.01-6.74.53-.646.982-1.315 1.346-1.999H118v-2H84.387a23.913 23.913 0 004.424-2c1.04-.609 1.99-1.28 2.833-2 2.394-2.041 3.938-4.468 4.282-6.932a7.34 7.34 0 000-2.068H96v-7h22v-2H96V60h22v-2H96V38h22zm-26 2V27.64L50 39.68v56.135l-4.656-.774c-2.238-.372-4.839-.337-7.572.257-6.508 1.417-10.357 5.102-11.13 7.802l-.133.468-.02.567c-.007.241.012.481.058.717.264 1.163 1.357 2.587 3.994 3.57 2.606.972 6.227 1.27 10.178.41M92 40v45.001h-.69l.657 4.57c.15 1.048-.218 2.538-1.75 4.251-1.518 1.699-3.96 3.326-7.11 4.39l.295 1.789H69.824l.338-1.695c-2.4-.997-3.381-2.332-3.62-3.427-.234-1.078.076-2.637 1.71-4.464 1.622-1.812 4.29-3.539 7.727-4.59L75.706 84H90V34.226L52 45.12v54.51l.004.065v.026l-.002.067a9.82 9.82 0 00-.002.195 3.8 3.8 0 01-.134.964l-.162.594-.31.581c-1.379 2.592-5.154 5.507-10.675 6.71M55.725 102a7.8 7.8 0 00.275-1.999v-.006l.002-.166c.003-.11.005-.221-.002-.332V82h18.809a24.448 24.448 0 00-4.736 2 20.245 20.245 0 00-2.964 2c-3.41 2.788-5.213 6.34-4.475 9.729A7.2 7.2 0 0063.559 98a8.662 8.662 0 001.737 2.001c.929.797 2.055 1.469 3.331 1.999H55.725zM86 80V60H56v20h30zM56 58h30V39.534l-30 8.6V58zm62-42v-2H10v2h108z" fillRule="evenodd"/></symbol>

<symbol id="music" viewBox="0 0 128 128"><path d="M110.98 91.936V7L47.074 25.113v68.778c-3.526-.58-7.505-.51-11.604.373-11.726 2.523-19.9 10.608-18.26 18.058 1.64 7.452 12.476 11.445 24.202 8.921 10.7-2.303 18.419-9.238 18.443-16.098v-.006c.014.21 0-.21 0 0V39.604L98.2 28.736v52.58c-3.527-.58-7.505-.509-11.604.373-11.726 2.524-19.9 10.61-18.26 18.06 1.639 7.451 12.476 11.444 24.202 8.921 11.031-2.376 18.915-9.674 18.443-16.734z"/></symbol>

<symbol id="periodical" viewBox="0 0 128 128"><path d="M105 12H48.75c-6.39 0-11.395 4.155-12.513 10H15c-3.436 0-5 2.333-5 4.5v75.75c0 7.03 5.832 12.75 13 12.75h82c7.168 0 13-5.72 13-12.75V24.5c0-7.009-5.71-12.5-13-12.5zm-79 97h-3c-3.925 0-7-2.965-7-6.75V28h20l-.001 39H36v35.25c0 3.911-2.733 6.75-6.5 6.75H26zm86-6.75c0 3.785-3.075 6.75-7 6.75H40.203c1.14-1.936 1.797-4.231 1.797-6.75V24.5c0-3.767 2.839-6.5 6.75-6.5H105c3.99 0 7 2.794 7 6.5v77.75z"/><path d="M49 76h57v4H49v-4zm0-10h57v4H49v-4zm0-10h57v4H49v-4zm0-10h25v4H49v-4zm0-10h25v4H49v-4zm0-10h25v4H49v-4zm0 60h57v4H49v-4zm32-35h25V26H81v25zm4-21h17v17H85V30z"/></symbol>

<symbol id="photograph" viewBox="0 0 128 128"><path d="M113.108 38h-21.98c-.278 0-.558-.083-.692-.146l-6.148-9.029C83.002 26.874 80.546 26 78.682 26H48.723c-1.75 0-4.268.695-5.579 2.617l-6.472 9.174c-.135.09-.467.209-.711.209H15.229C12.541 38 10 40.645 10 43.441v52.21C10 98.45 12.492 101 15.229 101h97.879c2.926 0 4.892-2.766 4.892-5.349v-52.21c0-2.628-1.966-5.441-4.892-5.441zM112 95H16V44h19.961c1.859 0 4.314-.847 5.579-2.702l6.442-9.133c.147-.076.462-.165.741-.165h29.959c.198 0 .514.111.65.207l6.19 9.09C86.834 43.29 89.278 44 91.128 44H112v51z"/><path d="M64.169 43.84c-12.83 0-23.268 10.437-23.268 23.267s10.438 23.268 23.268 23.268 23.268-10.438 23.268-23.268S76.999 43.84 64.169 43.84zm0 40.534c-9.521 0-17.268-7.746-17.268-17.268s7.746-17.268 17.268-17.268 17.268 7.746 17.268 17.268-7.747 17.268-17.268 17.268z"/></symbol>

<symbol id="pocket" viewBox="0 0 128 128"><path d="M99 31v74H31.5a2.5 2.5 0 110-5H97V16H28.308C25.431 16 23 18.29 23 21v84.651C23 108.4 25.579 111 28.308 111H105V31h-6zm-70-9h62v72H29V22z"/></symbol>

<symbol id="talking-book" viewBox="0 0 128 128"><path d="M88 112H31.278c-4.564-.043-8.278-3.779-8.278-8.328 0-4.658 3.791-8.63 8.278-8.672H80V56h-6v33H31v.014c-2.979.075-5.732 1.09-8 2.761V39c0-3.86 2.953-7 6.584-7H49v-6H29.584C22.646 26 17 31.832 17 39v65h.017c.175 7.602 6.354 13.796 13.983 13.986V118h63V56h-6v56z"/><path d="M107.433 9H57.308C54.579 9 52 11.617 52 14.386v34.013C52 51.022 54.282 53 57.308 53h50.124c2.731 0 4.567-1.849 4.567-4.601V14.386C112 11.265 110.079 9 107.433 9zM71.346 47l1.287-5h19.251l1.345 5H71.346zM106 47h-8.63l-2.42-9H69.533l-2.318 9H58V15h48v32z"/><path d="M70 33.024V33h25v-.052c3-.498 6.006-3.414 6.006-6.948 0-3.534-3.006-6.45-6.006-6.948V19H70v-.024c-4 .08-6.885 3.19-6.885 7.024S66 32.945 70 33.024zm22.821-10.54A3.515 3.515 0 0196.337 26a3.515 3.515 0 01-6.002 2.486 3.516 3.516 0 012.486-6.002zM78 22h7v8h-7v-8zm-7.124.484a3.516 3.516 0 110 7.032 3.516 3.516 0 010-7.032z"/></symbol>

<symbol id="vinyl" viewBox="0 0 128 128"><path d="M64 36.25c-15.025 0-27.25 12.224-27.25 27.25 0 15.025 12.225 27.25 27.25 27.25S91.25 78.525 91.25 63.5c0-15.026-12.225-27.25-27.25-27.25zm0 49.5c-12.269 0-22.25-9.981-22.25-22.25S51.731 41.25 64 41.25s22.25 9.981 22.25 22.25S76.269 85.75 64 85.75z"/><path d="M64 19c-24.853 0-45 20.146-45 45 0 24.853 20.147 45 45 45 24.854 0 45-20.147 45-45 0-24.854-20.146-45-45-45zm0 84c-21.78 0-39.5-17.72-39.5-39.5S42.22 24 64 24s39.5 17.72 39.5 39.5S85.78 103 64 103z"/><path d="M64 43.25c-11.166 0-20.25 9.084-20.25 20.25S52.834 83.75 64 83.75s20.25-9.084 20.25-20.25S75.166 43.25 64 43.25zm0 26.37a6.12 6.12 0 110-12.238 6.12 6.12 0 010 12.238z"/><path d="M64 26c-20.678 0-37.5 16.822-37.5 37.5S43.322 101 64 101s37.5-16.822 37.5-37.5S84.678 26 64 26zm0 66.75c-16.129 0-29.25-13.121-29.25-29.25 0-16.128 13.121-29.25 29.25-29.25 16.129 0 29.25 13.122 29.25 29.25 0 16.129-13.121 29.25-29.25 29.25z"/></symbol>
</svg>